<?xml version="1.0" encoding="utf-8"?>
<!-- Generator: Adobe Illustrator 26.3.1, SVG Export Plug-In . SVG Version: 6.00 Build 0)  -->
<svg version="1.1" id="Layer_1" xmlns="http://www.w3.org/2000/svg" xmlns:xlink="http://www.w3.org/1999/xlink" x="0px" y="0px"
	 viewBox="0 0 1000 1000" style="enable-background:new 0 0 1000 1000;" xml:space="preserve">
<style type="text/css">
	.st0{fill:#B80000;}
	.st1{fill:#FFFFFF;}
</style>
<rect id="XMLID_00000106118403662645891730000016746198000062013596_" width="1000" height="1000"/>
<rect id="XMLID_00000168803195078905010420000001915416151600906631_" x="714.6" y="457.4" class="st0" width="147" height="78.8"/>
<path id="XMLID_00000035528807472697442220000013884826451514894724_" class="st1" d="M908.6,627.7v72.7H558.9V299.2h349.6v67.1
	H649.9v261.4H908.6z M434.4,404.1h75.8V371c0-38.2-31-69.2-69.2-69.2H183.2c-39.6,0-71.6,32.1-71.6,71.6v87.2
	c0,39.6,32.1,71.6,71.6,71.6h258.1v90.9H92.6v3.8c0,38.1,30.9,69,69,69h289.1c32.9,0,59.5-26.6,59.5-59.5V517.8
	c0-33.9-27.5-61.4-61.4-61.4h-263v-87.9h248.6V404.1z"/>
</svg>
