<?xml version="1.0" encoding="utf-8"?>
<!-- Generator: Adobe Illustrator 26.3.1, SVG Export Plug-In . SVG Version: 6.00 Build 0)  -->
<svg version="1.1" id="Layer_2" xmlns="http://www.w3.org/2000/svg" xmlns:xlink="http://www.w3.org/1999/xlink" x="0px" y="0px"
	 viewBox="0 0 1000 1000" style="enable-background:new 0 0 1000 1000;" xml:space="preserve">
<style type="text/css">
	.st0{fill:#B80000;}
	.st1{fill:#FFFFFF;}
</style>
<rect id="XMLID_00000106118403662645891730000016746198000062013596_" width="1000" height="1000"/>
<rect id="XMLID_00000168803195078905010420000001915416151600906631_" x="714.6" y="457.4" class="st0" width="147" height="78.8"/>
<polygon id="XMLID_00000122712706839853221980000006924396276002349469_" class="st1" points="649.9,627.7 649.9,366.4 908.6,366.4 
	908.6,299.2 558.9,299.2 558.9,700.4 908.6,700.4 908.6,627.7 "/>
<path id="XMLID_00000036974511816880309620000015555816623248883078_" class="st1" d="M434.4,404.1h75.8V371
	c0-38.2-31-69.2-69.2-69.2H183.2c-39.6,0-71.6,32.1-71.6,71.6v87.2c0,39.6,32.1,71.6,71.6,71.6h258.1v90.9H92.6v3.8
	c0,38.1,30.9,69,69,69h289.1c32.9,0,59.5-26.6,59.5-59.5V517.8c0-33.9-27.5-61.4-61.4-61.4h-263v-87.9h248.6V404.1z"/>
</svg>
