<?xml version="1.0" encoding="utf-8"?>
<!-- Generator: Adobe Illustrator 26.3.1, SVG Export Plug-In . SVG Version: 6.00 Build 0)  -->
<svg version="1.1" id="Layer_1" xmlns="http://www.w3.org/2000/svg" xmlns:xlink="http://www.w3.org/1999/xlink" x="0px" y="0px"
	 viewBox="0 0 1000 1000" style="enable-background:new 0 0 1000 1000;" xml:space="preserve">
<style type="text/css">
	.st0{fill:#0A0A0B;}
	.st1{fill:#0B0B0B;}
	.st2{fill:#0B0A0B;}
</style>
<g id="XMLID_00000173122265462326163470000006021805962915975056_">
	<path id="XMLID_00000042724076344313293020000003757428522479445123_" class="st0" d="M728.5,858.1c-1.6-8-4.5-15.1-7-22.3
		c-14.2-42.3-28.6-84.4-42.5-126.8c-2.3-7.2-5.9-10.9-13.3-12.3c-8.4-1.7-16.4-4.7-24.7-6.9c-4.5-1.2-6.2-3.9-7-8.4
		c-2.9-17,1.8-32,11.1-46c7.3-11.1,16-21,23.9-31.6c13.7-18.5,19.9-39.1,15.7-62c-1.7-9.4-5.8-17.8-14.7-23
		c-2.8-1.6-2.7-3.3-0.5-5.7c11.1-12.2,28.9-16.9,44.6-11.6c4,1.3,6.6,3.8,7.6,7.8c2.4,9.4,3.4,18.8-0.3,28.3
		c-4.3,11.2-6.8,22.9-8.8,34.7c-3,17.8,7.1,35.3,25.9,45.3c16.9,9,33.9,17.9,50.9,26.8c21.4,11.3,42.7,22.6,64,33.9
		c2,1.1,4.2,1.9,6.8,2.1c-11-9.8-22.1-19.5-33.1-29.3c-21.6-19.2-43.2-38.3-64.7-57.6c-3.1-2.7-5.8-4.3-10.2-2.7
		c-5,1.9-10.5,2.4-15.5,4.4c-5,1.9-7,0.1-9-4.3c-5-11-3.9-22-0.6-32.8c3.5-11.6,8.9-22.6,8.4-35.7c5.8,6.3,8.2,16.6,6.3,25.4
		c-2.2,10.5-6.7,20.5-6.8,31.5c-0.1,5.9,2.1,7,7.1,5.8c3.3-0.8,6.9-1,9.8-2.6c4.4-2.4,7-1.4,10.6,1.9c39.4,35.9,79,71.6,118.6,107.4
		c2.5,2.3,5,4.5,8.9,8c-18.6-5.8-35.6-11.1-52.5-16.5c-37.4-11.9-74.7-23.8-112.1-35.6c-3.6-1.1-5.8-2-6.2-6.8
		c-0.6-9.6-1.7-9.7-11.8-8.2c-23.8,3.7-41.5,15.6-52.2,37.5c-3.5,7.1-2.7,9.6,4.1,13.8c5,3.1,10.6,4.9,16.3,5.5
		c3.2,0.3,4.4,1.7,5.3,4.4c13.1,41,26.4,81.9,39.5,122.8c6.6,20.7,13.2,41.3,19.9,62c0.6,1.9,1.6,3.7,1,5.8c-1.6,0.6-2-0.9-2.7-1.7
		c-43.2-49-86.3-98.1-129.6-147.1c-2-2.3-2.5-4.1-0.9-6.7c3.3-5.7,3.4-12.2,4.1-18.6c0.5-4.4-1.6-7.3-5.8-8.5
		c-28.4-8.1-54.7-5.5-77,16c-6.4,6.2-6.6,8.5-1.4,15.9c3.4,4.8,7.8,8.6,12.4,12.1c2.4,1.8,2.9,3.4,2.3,6.4
		C533.8,796,524.8,840,515.7,884c-5.3,25.6-10.7,51.2-15.9,76.8c-0.4,1.7-0.3,3.5-0.5,6.4c-8.9-42.9-17.5-84.7-26.1-126.4
		c-6.1-29.5-12.1-59.1-18.4-88.5c-0.8-3.5,0.2-5,2.6-6.9c5.4-4.2,10.4-8.7,14-14.7c2.7-4.4,2-7.7-1.4-11.2c-17.8-18-39.1-24.9-64-21
		c-4.7,0.7-9.3,2-14,3.1c-4.9,1.1-7.1,4.1-6.6,9.1c0.6,6.2,1,12.5,4,18c1.7,3.1,0.9,4.8-1.2,7.2c-43.2,49-86.3,98.2-129.5,147.2
		c-1,1.1-1.7,2.8-3.7,2.7c20.6-64.1,41.2-128.1,61.8-192.2c0.9-2.8,2.2-3.8,5.3-4.3c6.9-1,13.6-3,19.2-7.7c3.3-2.7,3.9-5.5,2.1-9.5
		c-9.8-22-26.7-34.8-50.2-39.2c-1.2-0.2-2.4-0.4-3.6-0.6c-9.3-1.7-11.1-0.6-11.3,8.9c-0.1,4-1.9,5-4.9,5.9
		c-52.6,16.6-105.2,33.2-157.7,49.8c-1.9,0.6-3.6,1.3-6,0.6c42.6-38.5,84.9-76.7,127.2-115c2.2-2,3.9-3.1,6.6-1.2
		c2.2,1.4,4.8,1.8,7.3,2.4c12.5,2.7,12.9,2.2,11.3-10.6c-1-8-3.9-15.4-5.8-23.2c-2.4-9.9-0.8-18.9,4.6-28c2.1,3.7,1.2,7.3,1.8,10.7
		c1.3,7.1,3.9,13.8,6.3,20.6c4.7,13.3,5.7,27,3,40.8c-1.2,6.2-4.6,11.1-10.4,14.6c-38.9,23-77.6,46.3-116.3,69.5
		c-1.3,0.8-2.5,1.6-3.7,2.8c9.4-1,18.1-4.6,26.9-7.4c31.7-10.1,63.1-20.7,94.8-30.8c5.4-1.7,7.4-4.4,6.1-9.5
		c-2.1-8.4,0.8-14.7,6.3-21.3c9.8-11.6,10.8-25.8,9.1-40.3c-1.7-14.6-7.1-28.2-10.5-42.3c-1.8-7.6,0.1-15.1,2.5-22.4
		c1.3-3.9,4.8-5.3,8.3-6.2c16.2-3.9,30.5-0.8,42.4,11.5c2.3,2.4,3.6,4.1-0.1,6.4c-10.2,6.4-14.4,16.6-15.3,27.8
		c-1.9,22.7,4.9,43,19.4,60.7c8.9,10.9,17.9,21.6,24.7,33.9c11.6,21.1,11.7,42.7,0.3,63.5c-25.8,47.2-52.2,93.9-78.4,140.9
		c-1.8,3.3-3.9,6.4-5.9,9.6c2.8,1.3,3.8-0.8,5.1-2.3c33.8-38.4,67.4-76.8,101.3-115.1c4-4.5,5.6-8.5,2.1-13.8
		c-0.4-0.6-0.6-1.5-0.9-2.2c-4.3-10.8-8.2-21-5.9-33.7c3.5-19.4,0.2-38.6-9.8-56.2c-4.6-8.1-11-14.7-16.7-22
		c-11.1-14.1-20.6-29-24.1-46.9c-2.2-11.3,0.4-21.4,6.6-30.8c2-2.9,4.5-4.1,8.1-4.1c8.5,0,15.5,3.4,21.6,9c2.3,2.2,3.4,4.8,2.5,8.1
		c-2.4,9.7-0.3,18.7,4.9,26.9c2.1,3.4,2.2,6.1,0.7,9.9c-6,14.3-3.5,27.6,7.4,38.7c10.1,10.2,22.6,11.7,36.1,8.7
		c5-1.1,8.6-4.3,11.9-7.7c2.6-2.6,4.9-2.8,8-1.2c4.2,2.2,8.5,4.4,13,5.9c3.7,1.2,3.8,2.7,2.8,6.1c-5.1,17.9-1.8,23.2,16.2,26.7
		c8,1.5,9.6,3.4,10.9,11.2c3.2,18.5,8.4,36.2,23.1,49.4c2.1,1.9,1.6,4.4,1.6,6.7c-0.1,67.2-0.2,134.4-0.3,201.6c0,1.3-0.5,2.7,1,4.3
		c2.6-4.1,2.7-8.7,3.6-12.9c10.4-50,20.2-100.2,31.2-150.1c2.9-13,2.7-22.7-9.2-30.9c-6.8-4.7-12.2-11.6-18.3-17.4
		c-2.6-2.4-2.6-4.2-0.4-7.1c9.7-12.6,14.8-27.2,17.3-42.7c1.4-8.9,2.6-10.5,11.8-12.3c0.4-0.1,0.8-0.2,1.2-0.3
		c15.9-3.7,19.3-9.1,14.6-24.7c-1.4-4.5-1.2-7.2,3.8-8.3c1-0.2,1.9-0.7,2.7-1.2c8-4.7,14.6-6.3,23,1.6c9.4,8.9,32,5.2,41.5-4.8
		c11.2-11.7,14.2-25.1,7.6-40.2c-1.4-3.1-1.2-5.5,0.5-8.3c5.4-8.4,7.7-17.5,5.4-27.5c-0.7-3.2,0-6,2.4-8.2c6.7-6.4,14.5-9.6,23.9-9
		c3.1,0.2,4.6,2.2,6,4.3c7.1,10.8,8.9,22.3,5.5,34.9c-4.9,18-14.9,33.1-26.9,46.8c-11,12.6-19.2,26.6-22.3,43.1
		c-3.3,17.4-1.6,33.8,8.3,49.5c30.7,48.4,60.8,97.3,91.2,146C724.9,854.7,725.5,857,728.5,858.1z"/>
	<path id="XMLID_00000054946026144317045860000017131555989134606234_" class="st1" d="M564.2,424.2c-2.2,0.2-5.1-0.2-7.4,0.8
		c-6,2.5-6.3-1.3-6.6-5.3c-1-15,12.4-30,27.6-30.8c14.8-0.9,27.8,11.5,28.7,27.2c0.1,1.8,0.1,3.6,0,5.4c-0.2,3.7,1.2,6.5,5.2,6.6
		c4.1,0.1,6.2-2.2,6-6.5c-0.3-7.8,1.3-15.1,6.2-21.4c7.7-10,20.5-13.4,31.7-8.5c12.1,5.3,20,18.5,18.5,30.3
		c-0.5,3.6-2.5,2.9-4.6,2.7c-22.9-1.7-36.7,6.9-44.5,27.9c-1,2.7-0.9,4.4,1.8,6.4c13.4,9.9,13.9,7,8.7,25.4
		c-7.2,25.6-21,47.3-40.3,65.5c-3,2.8-3.3,4.1,0.2,7c10.1,8.6,19,18.4,24,31.1c3.6,9.1,0.7,20.8-6.7,26.8
		c-7.8,6.3-18.7,6.7-27.4,1.2c-3.6-2.3-4.8-4.7-2.6-8.9c3.2-6.1,4.5-12.7,4.9-19.6c0.4-8.3-4.1-14.3-8.6-20.5
		c-1.9-2.6-3.6-0.7-5.2,0c-10,4.6-20,9.1-29.8,14c-5.1,2.5-7.5,0.9-9.5-3.9c-5.1-11.9-4.7-11.9,7.3-16.5
		c33.1-12.4,55.6-36,69.7-67.9c1.8-4.2,3.7-8.4,4.1-13.1c0.2-2.6-0.2-4.8-3.3-5.5c-2.7-0.6-5.4-0.7-6.8,2.1
		c-1.4,2.8-2.5,5.8-3.6,8.8c-11.5,32.2-35.3,51.9-65.7,65.1c-5.2,2.3-5.5-0.1-5.2-4.3c0.7-7.8,2.7-13.5,11-17.7
		c23.4-11.6,40.7-29.5,44.6-56.5c1.3-9.4,3.6-15.3,13.4-16.4c2.4-0.3,2-1.6,1.5-3.4C596.9,435.8,581.3,424,564.2,424.2z"/>
	<path id="XMLID_00000064349850781441536690000005159660684267352497_" class="st1" d="M446.7,418.6c0,7.2,0,7.2-7,6.1
		c-20-3-37,7.3-43.8,26.4c-1.1,3.1-0.1,4.1,2.4,4.3c9.4,1,11.3,6.8,12.4,15.4c2.8,22.4,15.8,38.8,34.2,51.2c3.8,2.6,7.8,4.8,11.8,7
		c7,3.8,11.2,12.5,9.7,20.1c-0.4,1.9-1.4,2.3-3,1.7c-3.5-1.4-7.2-2.4-10.5-4.2c-28-14.8-49.8-35.3-59.2-66.7
		c-0.7-2.3-1.5-4.7-3.9-5.7c-2.3-1-4.8-0.7-6.8,0.9c-2.2,1.9-1.6,4.4-0.9,6.7c3.9,12.9,9.3,25.2,17.7,35.8
		c14.6,18.3,31.1,34.6,54,42.3c0.6,0.2,1.1,0.5,1.6,0.7c3.6,1.3,9.3,0.9,10.1,4.8c1.1,4.9-1.7,10.1-4.2,14.7c-1.6,3-4,2.5-6.7,1.2
		c-10.3-4.9-20.7-9.5-30.9-14.4c-3.1-1.5-4.5-1-6.8,1.7c-10,12-8.4,24.9-2.6,37.7c2.4,5.1,1.2,7.5-3,10c-8.7,5.2-19.3,4.7-26.8-1.6
		c-7.1-5.9-10-18-6.5-26.9c4.9-12.5,13.8-21.9,23.6-30.6c3-2.7,4.2-3.9,0.4-7.4c-21.8-20.3-35.7-45.2-42.8-74.1
		c-1.6-6.4,1.4-9.7,5.8-13c9.6-7.2,9.6-7.3,3.6-17.7c-8.8-15.4-21.5-23.5-39.7-20.3c-5.4,0.9-6.1-1.8-6-5.9
		c0.4-15.6,13.6-29.2,28.5-29.2c15.9-0.1,27.4,12.1,27.7,29.1c0,1.6-0.1,3.2,0.1,4.8c0.5,3.1,2.8,4.4,5.5,4.6
		c2.8,0.2,5.1-1.1,5.5-4.3c0.3-2.6,0.3-5.2,0.5-7.8c1.3-16,13.3-27.7,28-27.2C434,389.4,446.6,402.9,446.7,418.6z"/>
	<path id="XMLID_00000167371001064689486260000016190875501420491415_" class="st1" d="M485.2,610.2c-4.9,1.7-9.3,1.7-13.6,1
		c-7.8-1.1-14.8-10-13.9-17.2c0.2-1.5,1.1-2.4,2.4-1.5c4.6,3.3,6.9-0.3,9.3-2.9c5.2-5.7,7.4-12.9,8.3-20.2c1.9-16-0.1-31.5-6.9-46.2
		c-6.1-13-16.2-20.5-30.6-22c-1.8-0.2-3.6,0.1-5.6-1.2c3.3-6.5,8.5-10.9,15.6-12.5c21-4.8,41,10.7,42,32.3c0.2,4.5,1.4,9.1,6.7,9
		c5.2-0.1,6.4-4.6,6.6-9.1c0.9-21.5,21.8-37.4,42.7-32.1c6.7,1.7,11.5,6.1,15.2,12.3c-2.3,1.7-4.8,1.2-7,1.5
		c-12.8,1.7-22.6,8-28.1,19.7c-9.1,19.2-12.1,39.1-4.9,59.8c1.3,3.7,3.3,6.8,5.7,9.7c1.7,2,4.5,4.2,6.7,3c6.5-3.7,4,0.9,3.6,3.5
		c-2,11.3-9.8,16.4-22.8,14.1c-4.6-0.8-4.8,0.6-3.6,3.9c1.2,3.6,2.6,7.1,4.2,10.6c4,8.4,7.9,10.3,16.8,7.8c3.6-1,6.2-0.6,6.1,3.5
		c-0.1,3.4,4.1,9.5-3.7,9.4c-15.2-0.1-21.7,7.6-24.2,22.1c-2.1,11.8-7.4,23.1-13.2,34.8c-6.1-12.4-10.7-24.5-14.1-37.1
		c-4.4-16.6-5.6-18-22.4-19.5c-7.9-0.7-4.9-5.6-4.8-9.4c0.2-5.1,3.1-5.2,7.3-3.8c7.6,2.6,12,0.3,15.2-7.2
		C482.3,621.3,484.8,616.5,485.2,610.2z"/>
	<path id="XMLID_00000100340521446930861320000007333271455098877063_" class="st1" d="M570.4,440.1c-0.4-3.5-2.2-4.8-5.8-4.3
		c-4.8,0.7-9.3,2.4-13.4,4.8c-4,2.3-6.5,1.5-7.1-3.2c-0.8-5.7-1.8-11.5-1.9-17.3c-0.4-16.3,5-29.5,21-36.4c3-1.3,3.5-3.2,3.2-6.1
		c-3-23-6-45.9-12.4-68.3c-0.5-1.9,0.2-4.3-2.4-5.6c-2.1,8.9-4.4,17.6-6.2,26.4c-4.5,22-6.7,44.3-8.7,66.6c-0.4,4.2-2.4,4.4-5.7,4.5
		c-4.5,0.2-2.9-2.8-2.9-4.8c0.2-29.7,0.5-59.4-0.7-89c-1.8-44.9-7.6-89.3-17.2-133.2c-3-13.7-6.1-27.5-11.2-41.1c-0.6,1-1,1.4-1.2,2
		c-13.7,42.4-21.6,86-24.7,130.4c-2.5,36.4-2.6,72.9-2.5,109.5c0,7.2-0.2,14.4,0,21.7c0.1,3.5-1.1,4.1-4.4,4.4
		c-4.9,0.4-4.9-2.3-5.3-5.8c-3-26.4-5.3-52.9-12.1-78.8c-1.1-4.3-1.4-8.9-3.9-13c-7,23.9-10.5,48-13.8,72.1
		c-0.6,4.5-0.1,7.3,4.7,9.3c9.2,3.9,15.3,10.9,17.7,20.6c2.6,10.9,1.9,21.8-0.6,32.7c-1,4.5-3,4.5-6.3,2.8c-3.9-2-7.8-3.9-12.3-4.7
		c-6.4-1-7.8-0.1-7.1,6.4c1.2,10.8,8.2,17.9,16.3,24.1c1.3,1,2.8,0.6,3.9-0.3c6.9-5.3,13.4-10.9,16-19.7c0.7-2.3,1.4-3.8,3.8-3.5
		c2.8,0.3,2.5,2.6,2.5,4.6c-0.1,7.4,0,14.8-0.4,22.3c-0.2,5.1,1.2,8.3,6.6,9.6c6.4,1.5,11.5,5.5,15.3,10.9c2.7,3.7,5,7.6,7.5,11.4
		c0.5-0.2,1-0.3,1.1-0.6c0.5-0.8,1-1.7,1.4-2.6c4.5-9.1,11-16.3,20.6-19.9c4.4-1.7,5.5-4.3,5.4-8.6c-0.2-7.4,0.1-14.8,0.3-22.2
		c0-1.9-0.3-4.4,2.5-4.8c2.7-0.3,2.8,1.7,3.5,3.8c2.8,8.3,9,14,15.7,19.2c1.2,0.9,2.4,1.3,3.9,0.8
		C560.4,464.6,571.4,447.6,570.4,440.1z M518.1,471.6c-5.6,3.6-10.1,8.5-14.7,13.2c-0.9,0.9-1.4,2.8-3.1,2.4c-2.2-0.5-1.4-2.7-1.5-4
		c-0.1-14.2-0.1-28.5-0.1-42.7c-0.1-88.1-0.2-176.1-0.3-264.2c0-5.9,0-11.9,0-17.8c0.5-0.1,1-0.1,1.5-0.2c3.6,9,5,18.6,6.7,28.1
		c6.2,34.5,10.6,69.2,13.1,104.1c2.3,31.6,1.6,63.3,2,95c0.3,25.7,0.3,51.3,0.6,77C522.5,466.6,521.5,469.4,518.1,471.6z"/>
	<path id="XMLID_00000067951290801418516430000013196344726342455720_" class="st1" d="M648.9,370.3c-0.4-9.2-0.6-18.4-1-27.7
		c-2.8-62.5-2.8-125.1-11.1-187.2c-4.1-30.7-8.6-61.3-16.1-91.4c-2.5-10-5.2-19.9-9.5-30.4c-0.9,3-1.5,4.8-2,6.6
		c-6.1,21.1-11,42.4-15.1,64c-6.5,34.5-11,69.1-12.6,104.2c-1.2,24.8-2.4,49.7-3.2,74.5c-1,28.8-1.6,57.7-2.3,86.5
		c-0.1,4.2,1.8,6.5,6.2,7.3c10.9,2.1,19.4,8.1,25.9,17.1c1.4,1.9,2.8,3.8,4.1,5.7c0.6-0.3,1.1-0.4,1.3-0.7
		c7-12.5,17.6-19.8,31.6-22.4C648.6,375.7,649,373.3,648.9,370.3z M635.8,368.5c-6.8,4.5-12.8,10.2-19.2,15.4
		c-1,0.8-1.9,2.4-3.5,1.4c-1.3-0.9-1.2-2.3-1.2-3.8c0.1-101.3,0.1-202.6,0.2-303.9c0-5.3,0-10.6,0-15.8c5,10.5,7,21.7,9,32.8
		c4.5,25.6,7.9,51.3,10.6,77.2c2.7,25.5,4.5,51.1,5.2,76.7c1,35.5,2.2,70.9,4.6,106.3C641.8,360.5,641.2,364.9,635.8,368.5z"/>
	<path id="XMLID_00000119840293809284181350000003852378365845655685_" class="st2" d="M421.7,364.3c-1.1-32.9-3-65.7-3.8-98.6
		c-1.4-59.2-7.3-117.9-18.3-176c-3.6-19.1-8.1-38.1-15.5-57.8c-8.5,28.2-14.5,55.1-19.3,82.4c-6.3,36.2-10.1,72.5-11.3,109.2
		c-1.5,48.1-3.4,96.2-5.1,144.3c-0.1,4,1.3,6.8,5.8,7.6c12.4,2.2,21.4,9.4,28.1,19.7c2.1,3.3,3.3,4,5.6,0.1
		c5.8-9.7,14.5-15.9,25.3-18.8C424.1,373.6,422,374.1,421.7,364.3z M411.1,365.4c-7.2,5.4-14.1,11.2-21.2,16.8
		c-1.1,0.8-1.9,2.3-3.5,1.7c-2-0.7-1.5-2.6-1.6-4.1c-0.2-2.6-0.1-5.2-0.1-7.8c0-101.7,0-203.4,0.1-305.1c0-2.6-1-5.4,0.9-9.3
		c4,11.4,6.2,22,8,32.7c6.6,38.1,11.4,76.4,14.2,114.9c1.4,19.4,1.8,38.8,2.7,58.3c1.4,31.2,2.6,62.5,4.1,93.7
		C414.7,360.8,414,363.2,411.1,365.4z"/>
</g>
</svg>
