<svg width="33" height="26" viewBox="0 0 33 26" fill="none" xmlns="http://www.w3.org/2000/svg">
<g clip-path="url(#clip0_68_160)">
<path fill-rule="evenodd" clip-rule="evenodd" d="M31.7085 19.4017C31.0867 20.1899 29.5634 20.7522 29.5634 20.7522L18.2311 24.842V21.8259L26.5709 18.8402C27.5173 18.4995 27.6626 18.0179 26.8933 17.7651C26.1255 17.5116 24.7352 17.5842 23.7881 17.9264L18.2311 19.8928V16.7626L18.5514 16.6536C18.5514 16.6536 20.1572 16.0827 22.4151 15.8313C24.673 15.5814 27.4377 15.8655 29.6082 16.6921C32.0541 17.4687 32.3296 18.6136 31.7085 19.4017ZM19.3098 14.2658V6.55254C19.3098 5.64667 19.1435 4.81272 18.2976 4.57663C17.6498 4.36814 17.2478 4.97254 17.2478 5.87768V25.1936L12.0632 23.5403V0.509308C14.2676 0.920472 17.4792 1.89244 19.2057 2.47723C23.5965 3.99185 25.0851 5.87695 25.0851 10.1244C25.0851 14.2644 22.5416 15.8335 19.3098 14.2658ZM2.55 21.5106C0.0390291 20.8001 -0.378864 19.3197 0.765642 18.4668C1.82339 17.6794 3.62221 17.0866 3.62221 17.0866L11.0561 14.4307V17.4585L5.70661 19.3821C4.76165 19.7228 4.61633 20.2052 5.38415 20.458C6.1527 20.7108 7.54375 20.6389 8.49015 20.2974L11.0561 19.3618V22.0707C10.8934 22.0997 10.7119 22.1288 10.5442 22.1571C7.97754 22.5785 5.24389 22.4027 2.55 21.5106ZM30.0572 22.7099C30.3818 22.7099 30.6862 22.8363 30.9154 23.0695C31.1446 23.2991 31.2711 23.6056 31.2711 23.9311C31.2711 24.258 31.1446 24.5631 30.9154 24.7926C30.6862 25.0244 30.3818 25.1508 30.0572 25.1508C29.7325 25.1508 29.4289 25.0244 29.199 24.7926C28.9698 24.5631 28.844 24.258 28.844 23.9311C28.844 23.2584 29.3877 22.7099 30.0572 22.7099ZM29.0479 23.9311C29.0479 24.202 29.1527 24.457 29.3436 24.6474C29.5337 24.8406 29.7882 24.9452 30.0572 24.9452C30.6146 24.9452 31.0665 24.4904 31.0665 23.9311C31.0665 23.6594 30.9624 23.4044 30.7708 23.2134C30.5806 23.0201 30.3261 22.9163 30.0572 22.9163C29.7882 22.9163 29.5337 23.0201 29.3436 23.2134C29.1527 23.4044 29.0479 23.6594 29.0479 23.9311ZM30.4237 23.2737C30.5568 23.3325 30.624 23.4458 30.624 23.6071C30.624 23.6899 30.6067 23.7596 30.5712 23.8141C30.5459 23.8534 30.5098 23.8853 30.4693 23.9129C30.5011 23.9318 30.5293 23.9543 30.5503 23.9805C30.5792 24.0183 30.5958 24.0785 30.598 24.1606L30.6045 24.3343C30.6067 24.3807 30.6096 24.4163 30.6168 24.4381C30.624 24.4701 30.6378 24.4904 30.6551 24.497L30.6732 24.5057V24.5253V24.5551V24.5849H30.6435H30.4288H30.4115L30.4028 24.5696C30.3955 24.5551 30.3905 24.5384 30.3854 24.5166C30.3818 24.497 30.3782 24.4628 30.376 24.4105L30.3652 24.1948C30.3623 24.12 30.337 24.0735 30.2892 24.0488C30.2596 24.035 30.2104 24.0284 30.1439 24.0284H29.7759V24.5551V24.5849H29.7456H29.5706H29.5409V24.5551V23.257V23.2272H29.5706H30.1685C30.2712 23.2272 30.3572 23.2424 30.4237 23.2737ZM29.7759 23.8207H30.1504C30.2256 23.8207 30.2856 23.8069 30.3283 23.7785C30.3673 23.7502 30.3861 23.6986 30.3861 23.6238C30.3861 23.5424 30.3594 23.4894 30.303 23.4611C30.2719 23.4458 30.2285 23.4371 30.1736 23.4371H29.7759V23.8207Z" fill="#E5E5E6"/>
</g>
<defs>
<clipPath id="clip0_68_160">
<rect width="32.1523" height="25.0074" fill="white" transform="translate(0 0.347794)"/>
</clipPath>
</defs>
</svg>
