<svg width="27" height="27" viewBox="0 0 27 27" fill="none" xmlns="http://www.w3.org/2000/svg">
<g clip-path="url(#clip0_68_162)">
<path d="M13.2637 1.03766C20.3404 1.03766 26.077 6.77446 26.0772 13.8511C26.0772 20.928 20.3405 26.6656 13.2637 26.6656C7.48896 26.6656 2.60639 22.8417 1.00589 17.5904L5.8555 19.5914C6.09584 20.6834 6.84854 21.6406 7.95413 22.1011C8.82425 22.4627 9.8027 22.4641 10.6739 22.105C11.5448 21.746 12.2379 21.0565 12.6006 20.1871C12.7941 19.724 12.8879 19.2249 12.875 18.7232L17.3565 15.5172L17.4668 15.5191C20.1516 15.519 22.3339 13.3306 22.334 10.6422C22.334 7.95369 20.1557 5.77282 17.4668 5.76715C14.7831 5.76715 12.5996 7.95365 12.5996 10.6422H12.6035L12.6045 10.7056L9.46975 15.2603C8.96214 15.2371 8.45238 15.3261 7.96878 15.525C7.7582 15.6105 7.55642 15.7179 7.36819 15.8453L0.483425 13.0074C0.483425 13.0074 0.482547 13.0086 0.482449 13.0103C0.480593 13.0072 0.479427 13.0037 0.477566 13.0005C0.916438 6.32096 6.4732 1.03769 13.2637 1.03766ZM8.34964 16.2505C8.98133 16.0105 9.69942 16.0029 10.3711 16.2818C11.0518 16.5633 11.5729 17.0932 11.8516 17.7711C12.1302 18.4489 12.1286 19.1966 11.8477 19.8716L11.7295 20.1255C11.0682 21.3508 9.57475 21.8966 8.26565 21.3511C7.64603 21.0907 7.14378 20.6111 6.85452 20.0045L8.4385 20.6617C8.68316 20.7635 8.94596 20.8165 9.21096 20.817C9.4761 20.8174 9.7393 20.7647 9.9844 20.6636C10.2294 20.5625 10.452 20.4143 10.6397 20.2271C10.8274 20.0399 10.9764 19.8176 11.0782 19.5728C11.2842 19.0781 11.2859 18.5215 11.0821 18.0259C10.8782 17.5304 10.4857 17.1359 9.99124 16.9293L8.34964 16.2505ZM17.4707 7.39508C18.3311 7.3972 19.1558 7.74041 19.7637 8.34918C20.3716 8.95794 20.7139 9.78284 20.7149 10.6431C20.7141 11.5035 20.3716 12.3282 19.7637 12.9371C19.1557 13.546 18.3312 13.8891 17.4707 13.8912C16.6106 13.8887 15.7864 13.5459 15.1787 12.9371C14.571 12.3282 14.2294 11.5034 14.2285 10.6431C14.2295 9.78298 14.571 8.95791 15.1787 8.34918C15.7864 7.74053 16.6107 7.39751 17.4707 7.39508ZM17.4756 8.19684C16.8293 8.19798 16.2094 8.45606 15.753 8.91364C15.2967 9.37117 15.0406 9.99115 15.041 10.6373C15.0407 11.2836 15.2973 11.9044 15.7539 12.3619C16.2104 12.819 16.8296 13.0767 17.4756 13.0777C18.1222 13.0771 18.7424 12.8194 19.1992 12.3619C19.6561 11.9044 19.9125 11.2838 19.9121 10.6373C19.9119 9.28998 18.8189 8.19684 17.4756 8.19684Z" fill="#E5E5E6"/>
</g>
<defs>
<clipPath id="clip0_68_162">
<rect width="26.0281" height="26.0281" fill="white" transform="translate(0.257931 0.837448)"/>
</clipPath>
</defs>
</svg>
