<svg width="28" height="28" viewBox="0 0 28 28" fill="none" xmlns="http://www.w3.org/2000/svg">
<g clip-path="url(#clip0_68_166)">
<path d="M6.19519 0.416914C3.49491 0.89971 1.32233 2.89826 0.637433 5.52556C0.390421 6.47431 0.373579 7.03009 0.401649 14.3899C0.418491 21.149 0.424105 21.3062 0.536383 21.8283C1.15953 24.6409 3.15807 26.6451 5.99871 27.3075C6.36922 27.3917 6.84079 27.4085 9.87791 27.4254C13.0217 27.4478 13.3473 27.4422 13.4315 27.358C13.5157 27.2738 13.5213 26.1903 13.5213 13.9071C13.5213 4.80137 13.5045 0.51235 13.4652 0.433756C13.4091 0.332705 13.3136 0.327091 10.0239 0.332705C7.35166 0.33832 6.54887 0.355162 6.19519 0.416914ZM11.2758 13.8903V25.264L8.99092 25.236C6.8857 25.2135 6.66115 25.2023 6.2401 25.0956C4.43243 24.6297 3.09071 23.2374 2.71458 21.4241C2.59107 20.8571 2.59107 6.88974 2.70896 6.33397C3.0458 4.75646 4.14051 3.44842 5.61696 2.85896C6.358 2.56142 6.70044 2.52774 9.10319 2.52213L11.2758 2.51651V13.8903Z" fill="#E5E5E6"/>
<path d="M6.678 5.9466C6.32432 6.01397 5.78539 6.28344 5.49908 6.53606C4.90962 7.04693 4.6177 7.77112 4.66261 8.62443C4.68507 9.06793 4.71314 9.18582 4.89278 9.54511C5.15663 10.0897 5.55522 10.4882 6.09977 10.7577C6.4759 10.943 6.57134 10.9654 7.05975 10.9823C7.50324 10.9991 7.66043 10.9823 7.95797 10.8812C9.17619 10.4714 9.91161 9.28687 9.70389 8.07427C9.46249 6.6315 8.0927 5.66591 6.678 5.9466Z" fill="#E5E5E6"/>
<path d="M16.2553 0.366381C16.2328 0.383223 16.216 6.46869 16.216 13.8903C16.216 26.1342 16.2216 27.3749 16.3058 27.4085C16.4574 27.4647 20.8138 27.4422 21.3527 27.3861C23.632 27.1278 25.6417 25.7412 26.7365 23.6809C26.8768 23.4171 27.0621 22.9736 27.1575 22.6985C27.5112 21.6431 27.4999 21.9238 27.4999 13.8566C27.4999 7.41744 27.4887 6.45746 27.4101 6.04765C26.8543 3.12281 24.6256 0.916544 21.6952 0.411293C21.3022 0.343925 20.6959 0.327084 18.7423 0.327084C17.3949 0.327084 16.2721 0.343925 16.2553 0.366381ZM22.2509 12.5935C23.1267 12.8236 23.8453 13.4917 24.1372 14.345C24.3225 14.8727 24.3169 15.6474 24.1316 16.1302C23.7892 17.0172 23.1155 17.6404 22.2509 17.8705C20.8475 18.2354 19.3542 17.3877 18.9444 15.9955C18.8209 15.5688 18.8265 14.8502 18.9668 14.4124C19.3879 13.037 20.8475 12.2286 22.2509 12.5935Z" fill="#E5E5E6"/>
</g>
<defs>
<clipPath id="clip0_68_166">
<rect width="27.0488" height="27.0488" fill="white" transform="translate(0.391602 0.327087)"/>
</clipPath>
</defs>
</svg>
