<svg width="28" height="28" viewBox="0 0 28 28" fill="none" xmlns="http://www.w3.org/2000/svg">
<g clip-path="url(#clip0_68_171)">
<path d="M12.492 27.0661C10.4477 26.8704 8.37809 26.1367 6.60018 24.9774C5.11034 24.0059 4.7739 23.6065 4.7739 22.8095C4.7739 21.2086 6.53511 18.4046 9.54842 15.2081C11.2598 13.3927 13.6436 11.2648 13.9014 11.3224C14.4025 11.4344 18.4092 15.3406 19.9091 17.1794C22.281 20.0871 23.3715 22.4679 22.8175 23.5293C22.3964 24.3362 19.7834 25.9132 17.8637 26.519C16.2815 27.0183 14.2037 27.23 12.492 27.0661ZM2.76171 21.145C1.52368 19.2468 0.898195 17.378 0.596204 14.675C0.496486 13.7825 0.53222 13.272 0.822638 11.4401C1.1846 9.15689 2.48557 6.51551 4.0488 4.88995C4.71459 4.19761 4.77405 4.18074 5.58561 4.45398C6.57114 4.7858 7.62362 5.51228 9.25586 6.9874L10.2082 7.84807L9.68815 8.4866C7.27409 11.4507 4.72569 15.6521 3.76528 18.2515C3.24316 19.6646 3.03257 21.0831 3.25723 21.6737C3.4089 22.0724 3.26958 21.9237 2.76171 21.145ZM24.4928 21.4679C24.6151 20.8712 24.4604 19.7753 24.0979 18.6699C23.3128 16.2762 20.6884 11.823 18.2786 8.79526L17.5199 7.84214L18.3407 7.08894C19.4123 6.10549 20.1563 5.51662 20.9591 5.01654C21.5926 4.62191 22.4979 4.27257 22.887 4.27257C23.127 4.27257 23.9716 5.14861 24.6534 6.10465C25.7094 7.58536 26.4863 9.38031 26.8799 11.2489C27.1342 12.4562 27.1554 15.0405 26.9209 16.2449C26.7284 17.2333 26.322 18.5154 25.9255 19.3849C25.6284 20.0364 24.8896 21.3017 24.5658 21.7134C24.3993 21.9251 24.3992 21.9247 24.4928 21.4679ZM12.7108 3.82055C11.5989 3.25621 9.88362 2.65044 8.93607 2.48746C8.60389 2.43032 8.03723 2.39846 7.67683 2.41665C6.89503 2.45611 6.92995 2.41525 8.18411 1.82304C9.2268 1.33069 10.0965 1.04117 11.2772 0.793392C12.6054 0.514662 15.1019 0.511391 16.409 0.786668C17.8207 1.08399 19.483 1.70227 20.4198 2.2784L20.6982 2.44963L20.0594 2.41739C18.7901 2.35333 16.9403 2.86585 14.9542 3.83184C14.3551 4.12321 13.834 4.35592 13.7961 4.34897C13.7581 4.34202 13.2698 4.10423 12.7108 3.82055Z" fill="#E5E5E6"/>
</g>
<defs>
<clipPath id="clip0_68_171">
<rect width="26.5384" height="26.5384" fill="white" transform="translate(0.54599 0.58226)"/>
</clipPath>
</defs>
</svg>
